# xmcd
#
# Track frame offsets: 
#        150
#        13289
#        27656
#        42634
#        56446
#        68718
#        80437
#        93053
#        106049
#        116913
#        130631
#        142278
#        153893
#        166488
#        177949
#        189153
#        201012
#        213894
#        226152
#        237945
#
# Disc length: 3317 seconds
#
# Revision: 0
# Processed by: cddbd v1.5.2PL0 Copyright (c) Steve Scherf et al.
# Submitted via: ExactAudioCopyFreeDBPlugin 1.0
#
DISCID=0c0cf314
DTITLE=Screamin' Jay Hawkins - Weird and then some! [CD1]
DYEAR=1900
DGENRE=Blues
TTITLE0=Why did you waste my time
TTITLE1=No hug no kiss
TTITLE2=Please try to understand
TTITLE3=Not anymore
TTITLE4=I found my way to wine
TTITLE5=Baptise me in wine
TTITLE6=In my front room
TTITLE7=This is all
TTITLE8=What that is
TTITLE9=She put me whamee on me
TTITLE10=You're all of my life to me
TTITLE11=Well I tried
TTITLE12=Even though
TTITLE13=Talk about me
TTITLE14=Take me back
TTITLE15=I is
TTITLE16=I put a spell on you
TTITLE17=$10,000 Lincoln Continental
TTITLE18=Pauline
TTITLE19=Little Demon
EXTD=
EXTT0=
EXTT1=
EXTT2=
EXTT3=
EXTT4=
EXTT5=
EXTT6=
EXTT7=
EXTT8=
EXTT9=
EXTT10=
EXTT11=
EXTT12=
EXTT13=
EXTT14=
EXTT15=
EXTT16=
EXTT17=
EXTT18=
EXTT19=
PLAYORDER=
